<svg xmlns="http://www.w3.org/2000/svg" data-name="Layer 1" viewBox="0 0 512 512" fill="#ffffff">
    <path d="M217,100h35.5v35.5a7.5,7.5,0,0,0,15,0V100H302a7.5,7.5,0,0,0,0-15H267.5V50.5a7.5,7.5,0,0,0-15,0V85H217a7.5,7.5,0,0,0,0,15ZM441,206H418.5V153.5A37.54227,37.54227,0,0,0,381,116H349.49792a92.50008,92.50008,0,1,0-178.99584,0H86a52.50019,52.50019,0,0,0-52.5,52.5v276A67.57631,67.57631,0,0,0,101,512H441a37.54227,37.54227,0,0,0,37.5-37.5v-231A37.54227,37.54227,0,0,0,441,206ZM260,15a77.60249,77.60249,0,0,1,72.40472,105.25854,7.43431,7.43431,0,0,0-.454,1.19263A77.16917,77.16917,0,0,1,296.23706,161H223.76294a77.16917,77.16917,0,0,1-35.71368-39.54883,7.43431,7.43431,0,0,0-.454-1.19263A77.60249,77.60249,0,0,1,260,15ZM59.48389,141.9834A37.25054,37.25054,0,0,1,86,131h89.8244A91.69961,91.69961,0,0,0,197.783,161H146a7.5,7.5,0,0,0,0,15H298.06458l.02136.00146L298.11157,176H373a7.5,7.5,0,0,0,0-15H322.217a91.69961,91.69961,0,0,0,21.95862-30H381a22.52523,22.52523,0,0,1,22.5,22.5V206H86a37.49979,37.49979,0,0,1-26.51611-64.0166ZM463.5,396h-82a37,37,0,0,1,0-74h82Zm0-89h-82a52,52,0,0,0,0,104h82v63.5A22.52523,22.52523,0,0,1,441,497H101a52.55929,52.55929,0,0,1-52.5-52.5V205.19238A52.33459,52.33459,0,0,0,86,221H441a22.52523,22.52523,0,0,1,22.5,22.5Zm-89,52a7.5,7.5,0,1,0,7.5-7.5A7.5,7.5,0,0,0,374.5,359Z"/></svg>