<svg width="401" height="255" viewBox="0 0 401 255" fill="none" xmlns="http://www.w3.org/2000/svg">
<g id="undraw_Hire_re_gn5j 1" clip-path="url(#clip0)">
<path id="Vector" d="M382.338 254.742H18.5C13.5952 254.737 8.89284 252.786 5.42461 249.318C1.95638 245.849 0.00550532 241.147 0 236.242V14.0884C0.00413416 10.3533 1.4897 6.77231 4.13078 4.13113C6.77187 1.48996 10.3528 0.00426407 14.0879 0H386.541C390.332 0.00426936 393.966 1.51198 396.646 4.19234C399.327 6.87269 400.834 10.5068 400.838 14.2974V236.242C400.833 241.147 398.882 245.849 395.414 249.318C391.946 252.786 387.243 254.737 382.338 254.742Z" fill="white"/>
<path id="Vector_2" d="M382.338 254.742H18.5C13.5952 254.737 8.89284 252.786 5.42461 249.318C1.95638 245.849 0.00550532 241.147 0 236.242V14.0884C0.00413416 10.3533 1.4897 6.77231 4.13078 4.13113C6.77187 1.48996 10.3528 0.00426407 14.0879 0H386.541C390.332 0.00426936 393.966 1.51198 396.646 4.19234C399.327 6.87269 400.834 10.5068 400.838 14.2974V236.242C400.833 241.147 398.882 245.849 395.414 249.318C391.946 252.786 387.243 254.737 382.338 254.742ZM14.0879 4C11.4133 4.00313 8.84914 5.06704 6.95796 6.95831C5.06678 8.84959 4.003 11.4138 4 14.0884V236.242C4.00437 240.086 5.53346 243.772 8.25179 246.49C10.9701 249.209 14.6557 250.738 18.5 250.742H382.338C386.183 250.738 389.868 249.209 392.587 246.49C395.305 243.772 396.834 240.086 396.838 236.242V14.2974C396.835 11.5673 395.75 8.94988 393.819 7.01941C391.889 5.08893 389.271 4.00306 386.541 4H14.0879Z" fill="#E6E6E6"/>
<path id="Vector_3" d="M166.111 198.496H57.0914C54.4241 198.492 51.8488 197.521 49.8434 195.762C47.838 194.003 46.5386 191.577 46.1864 188.933C46.1202 188.457 46.0884 187.977 46.0914 187.496V67.246C46.0947 64.3296 47.2547 61.5337 49.3169 59.4715C51.3791 57.4093 54.1751 56.2493 57.0914 56.246H166.111C169.028 56.2493 171.824 57.4093 173.886 59.4715C175.948 61.5337 177.108 64.3296 177.111 67.246V187.496C177.108 190.412 175.948 193.208 173.886 195.271C171.824 197.333 169.028 198.493 166.111 198.496ZM57.0914 62.246C55.7658 62.2475 54.4949 62.7748 53.5576 63.7122C52.6202 64.6495 52.093 65.9204 52.0914 67.246V187.496C52.0893 187.702 52.102 187.907 52.1295 188.111C52.2826 189.32 52.8707 190.432 53.7839 191.239C54.697 192.046 55.8728 192.493 57.0914 192.496H166.111C167.437 192.494 168.708 191.967 169.645 191.03C170.583 190.093 171.11 188.822 171.111 187.496V67.246C171.11 65.9204 170.583 64.6495 169.645 63.7122C168.708 62.7748 167.437 62.2475 166.111 62.246H57.0914Z" fill="#FA4050"/>
<path id="Vector_4" d="M346.747 159.396H214.747C212.625 159.396 210.59 158.553 209.09 157.053C207.59 155.552 206.747 153.518 206.747 151.396C206.747 149.274 207.59 147.239 209.09 145.739C210.59 144.239 212.625 143.396 214.747 143.396H346.747C348.869 143.396 350.903 144.239 352.404 145.739C353.904 147.239 354.747 149.274 354.747 151.396C354.747 153.518 353.904 155.552 352.404 157.053C350.903 158.553 348.869 159.396 346.747 159.396Z" fill="#E6E6E6"/>
<path id="Vector_5" d="M286.747 125.396H214.747C212.625 125.396 210.59 124.553 209.09 123.053C207.59 121.552 206.747 119.518 206.747 117.396C206.747 115.274 207.59 113.239 209.09 111.739C210.59 110.239 212.625 109.396 214.747 109.396H286.747C288.869 109.396 290.903 110.239 292.404 111.739C293.904 113.239 294.747 115.274 294.747 117.396C294.747 119.518 293.904 121.552 292.404 123.053C290.903 124.553 288.869 125.396 286.747 125.396Z" fill="#7966ff"/>
<path id="Vector_6" d="M147.548 124.066C147.548 141.739 131.206 139.066 111.048 139.066C90.8894 139.066 74.5479 141.739 74.5479 124.066C74.5479 106.393 82.5303 75.066 111.048 75.066C140.548 75.066 147.548 106.393 147.548 124.066Z" fill="#2F2E41"/>
<path id="Vector_7" d="M149.024 153.81C148.32 151.778 146.917 150.062 145.064 148.97C144.707 148.75 144.332 148.56 143.944 148.4C142.32 147.724 140.533 147.537 138.804 147.86C137.075 148.183 135.477 149.003 134.206 150.22C132.935 151.437 132.046 152.997 131.648 154.711C131.25 156.425 131.36 158.217 131.964 159.87L146.504 192.92H165.654L149.024 153.81Z" fill="#3F3D56"/>
<path id="Vector_8" d="M85.574 155.61C84.4247 155.054 83.171 154.748 81.8952 154.712C80.6193 154.675 79.3501 154.908 78.1707 155.396C76.9913 155.884 75.9285 156.616 75.0519 157.544C74.1753 158.472 73.5048 159.575 73.0842 160.78L59.5443 192.63C60.2376 192.823 60.9543 192.921 61.6741 192.92H78.6644L90.1439 166.84C90.9096 164.734 90.866 162.42 90.0216 160.345C89.1772 158.27 87.5922 156.582 85.574 155.61Z" fill="#3F3D56"/>
<path id="Vector_9" d="M110.926 139.037C124.49 139.037 135.487 128.04 135.487 114.475C135.487 100.911 124.49 89.9145 110.926 89.9145C97.3611 89.9145 86.3647 100.911 86.3647 114.475C86.3647 128.04 97.3611 139.037 110.926 139.037Z" fill="#FFB8B8"/>
<path id="Vector_10" d="M145.494 149.36C145.354 149.23 145.214 149.09 145.064 148.97C143.352 147.426 141.326 146.272 139.125 145.586C136.924 144.901 134.6 144.701 132.314 145L87.0539 150.73C82.9079 151.243 79.1248 153.351 76.5073 156.607C73.8898 159.863 72.6439 164.01 73.0339 168.17C73.6541 175.15 74.6541 183.96 76.2542 192.92H147.754L150.384 162.36C150.596 159.965 150.266 157.553 149.42 155.303C148.573 153.053 147.231 151.021 145.494 149.36Z" fill="#3F3D56"/>
<path id="Vector_11" d="M82.5479 112.066H92.2622L96.5479 100.066L97.4048 112.066H102.048L104.548 105.066L105.048 112.066H139.548C139.548 105.17 136.809 98.5572 131.933 93.6812C127.057 88.8053 120.443 86.066 113.548 86.066H108.548C101.652 86.066 95.039 88.8053 90.1631 93.6812C85.2871 98.5572 82.5479 105.17 82.5479 112.066Z" fill="#2F2E41"/>
<path id="Vector_12" d="M336 179C329.365 179.012 323.007 181.705 318.32 186.485C313.633 191.266 311 197.745 311 204.5C311 211.255 313.632 217.734 318.319 222.514C323.006 227.295 329.365 229.987 336 230H336C342.635 229.988 348.993 227.295 353.681 222.515C358.368 217.734 361 211.255 361 204.5C361 197.745 358.368 191.266 353.681 186.485C348.993 181.705 342.635 179.012 336 179Z" fill="#9EB7FF"/>
<path id="Path 396" d="M333.473 215.475C332.779 215.476 332.103 215.252 331.547 214.835L331.513 214.809L324.259 209.26C323.582 208.74 323.139 207.972 323.027 207.125C322.916 206.278 323.146 205.421 323.665 204.743C324.185 204.065 324.953 203.622 325.799 203.509C326.646 203.397 327.503 203.625 328.181 204.144L332.88 207.747L343.983 193.262C344.24 192.926 344.561 192.644 344.928 192.432C345.294 192.221 345.699 192.083 346.118 192.028C346.538 191.972 346.964 192 347.373 192.109C347.781 192.219 348.165 192.408 348.501 192.665L348.501 192.666L348.433 192.761L348.503 192.666C349.181 193.187 349.624 193.955 349.736 194.802C349.848 195.649 349.619 196.506 349.099 197.184L336.04 214.214C335.738 214.607 335.349 214.924 334.905 215.142C334.46 215.36 333.971 215.473 333.476 215.471L333.473 215.475Z" fill="white"/>
</g>
<defs>
<clipPath id="clip0">
<rect width="401" height="255" fill="white"/>
</clipPath>
</defs>
</svg>
