<?xml version="1.0" encoding="iso-8859-1"?>
<!-- Generator: Adobe Illustrator 19.0.0, SVG Export Plug-In . SVG Version: 6.00 Build 0)  -->
<svg version="1.1" id="Capa_1" xmlns="http://www.w3.org/2000/svg" xmlns:xlink="http://www.w3.org/1999/xlink" x="0px" y="0px"
	 viewBox="0 0 488.5 488.5" style="enable-background:new 0 0 488.5 488.5;" xml:space="preserve" fill="#ffffff">
<g>
	<path d="M370.8,166.8c-11.8,0-21.3,9.6-21.3,21.3v5.7c-16.1-3-28.2-17-28.2-33.9c0-2.9,0.4-5.7,1-8.4H69.1c0.4,2.1,0.6,4.2,0.6,6.3
		c0,19.1-15.5,34.5-34.5,34.5c-2.1,0-4.1-0.2-6.1-0.5v104.8c2-0.4,4-0.5,6.1-0.5c19.1,0,34.5,15.4,34.5,34.5c0,2.2-0.2,4.3-0.6,6.3
		h212l-0.1,12.4v13.4c0,1.1,0.2,2.3,0.3,3.4H34.1C15.3,366.1,0,350.8,0,332V156.5c0-18.8,15.3-34.1,34.1-34.1h325.2
		c18.8,0,34.1,15.3,34.1,34.1v10.3L370.8,166.8L370.8,166.8z M415.9,345.9h-45.2c-1.9,0-3.4,1.5-3.4,3.4v13.4c0,1.9,1.5,3.4,3.4,3.4
		h45.2c1.9,0,3.4-1.5,3.4-3.4v-13.5C419.3,347.4,417.8,345.9,415.9,345.9z M415.9,319h-45.2c-1.9,0-3.4,1.5-3.4,3.4v13.4
		c0,1.9,1.5,3.4,3.4,3.4h45.2c1.9,0,3.4-1.5,3.4-3.4v-13.4C419.3,320.5,417.8,319,415.9,319z M415.9,292.2h-45.2
		c-1.9,0-3.4,1.5-3.4,3.4V309c0,1.9,1.5,3.4,3.4,3.4h45.2c1.9,0,3.4-1.5,3.4-3.4v-13.4C419.3,293.7,417.8,292.2,415.9,292.2z
		 M415.9,265.3h-45.2c-1.9,0-3.4,1.5-3.4,3.4v13.4c0,1.9,1.5,3.4,3.4,3.4h45.2c1.9,0,3.4-1.5,3.4-3.4v-13.4
		C419.3,266.8,417.8,265.3,415.9,265.3z M415.9,238.5h-45.2c-1.9,0-3.4,1.5-3.4,3.4v13.3c0,1.9,1.5,3.4,3.4,3.4h45.2
		c1.9,0,3.4-1.5,3.4-3.4v-13.4C419.3,240,417.8,238.5,415.9,238.5z M415.9,211.6h-45.2c-1.9,0-3.4,1.5-3.4,3.4v13.4
		c0,1.9,1.5,3.4,3.3,3.4h45.2c1.9,0,3.4-1.5,3.4-3.4V215C419.3,213.1,417.8,211.6,415.9,211.6z M415.9,184.8h-45.2
		c-1.9,0-3.4,1.5-3.4,3.4v13.4c0,1.9,1.5,3.4,3.4,3.4h45.2c1.9,0,3.4-1.5,3.4-3.4v-13.4C419.3,186.3,417.8,184.8,415.9,184.8z
		 M485.1,345.9h-45.2c-1.9,0-3.4,1.5-3.4,3.4v13.4c0,1.9,1.5,3.4,3.4,3.4h45.2c1.9,0,3.4-1.5,3.4-3.4v-13.5
		C488.4,347.4,486.9,345.9,485.1,345.9z M485.1,319h-45.2c-1.9,0-3.4,1.5-3.4,3.4v13.4c0,1.9,1.5,3.4,3.4,3.4h45.2
		c1.9,0,3.4-1.5,3.4-3.4v-13.4C488.4,320.5,486.9,319,485.1,319z M485.1,292.2h-45.2c-1.9,0-3.4,1.5-3.4,3.4V309
		c0,1.9,1.5,3.4,3.4,3.4h45.2c1.9,0,3.4-1.5,3.4-3.4v-13.4C488.4,293.7,486.9,292.2,485.1,292.2z M346.8,345.9h-45.2
		c-1.9,0-3.4,1.5-3.4,3.4v13.4c0,1.9,1.5,3.4,3.4,3.4h45.2c1.9,0,3.4-1.5,3.4-3.4v-13.5C350.2,347.4,348.7,345.9,346.8,345.9z
		 M346.8,319h-45.2c-1.9,0-3.4,1.5-3.4,3.4v13.4c0,1.9,1.5,3.4,3.4,3.4h45.2c1.9,0,3.4-1.5,3.4-3.4v-13.4
		C350.2,320.5,348.7,319,346.8,319z M346.8,292.2h-45.2c-1.9,0-3.4,1.5-3.4,3.4V309c0,1.9,1.5,3.4,3.4,3.4h45.2
		c1.9,0,3.4-1.5,3.4-3.4v-13.4C350.2,293.7,348.7,292.2,346.8,292.2z M346.8,265.3h-45.2c-1.9,0-3.4,1.5-3.4,3.4v13.4
		c0,1.9,1.5,3.4,3.4,3.4h45.2c1.9,0,3.4-1.5,3.4-3.4v-13.4C350.2,266.8,348.7,265.3,346.8,265.3z M346.8,238.5h-45.2
		c-1.9,0-3.4,1.5-3.4,3.4v13.3c0,1.9,1.5,3.4,3.4,3.4h45.2c1.9,0,3.4-1.5,3.4-3.4v-13.4C350.2,240,348.7,238.5,346.8,238.5z
		 M196.7,169.3c41.2,0,74.6,33.5,74.6,74.9s-33.4,74.9-74.6,74.9s-74.6-33.5-74.6-74.9C122,202.8,155.4,169.3,196.7,169.3z
		 M195.1,202.4c-6.3,1-12.2,3.2-17.3,7.2c-6.4,5-10.6,11.6-13,19.4l-0.3,0.9h-9c-1.4,0-2.6,1.2-2.6,2.6v5.8c0,1.4,1.2,2.6,2.6,2.6
		h7.1c0,1.6,0,3.1,0,4.7h-7.1c-1.4,0-2.6,1.2-2.6,2.6v5.8c0,1.4,1.2,2.6,2.6,2.6h8.6c0.6,2.1,1.2,4.3,2,6.3
		c4.3,10.5,11.6,17.9,22.5,21.5c9,2.9,18.1,2.9,27.2,0.3c2.4-0.7,4.7-1.5,7-2.5c2.2-1,2.7-2.7,1.9-4.8c-0.9-2.3-1.9-4.6-3-6.9
		c-0.9-2-2.1-2.6-4.3-2.1c-2.8,0.6-5.6,1.5-8.4,2.1c-5.5,1.1-10.9,1.2-16.3-0.5c-6.7-2.1-10.3-7-12.6-13.4h18.3
		c1.4,0,2.6-1.2,2.6-2.6v-5.8c0-1.4-1.2-2.6-2.6-2.6h-20.2c0-1.6,0-3.2,0-4.7h20.1c1.4,0,2.6-1.2,2.6-2.6v-5.8
		c0-1.4-1.2-2.6-2.6-2.6h-17.5c0-0.1,0-0.1,0-0.2c2.1-4.8,5.2-8.7,10.2-10.7c5.9-2.3,11.8-2.3,17.9-1c2.9,0.6,5.7,1.5,8.5,2.1
		c2.1,0.5,3.3-0.1,4.2-2.1c1-2.3,2-4.5,2.9-6.8c0.9-2.2,0.4-3.7-1.7-4.9c-0.5-0.3-1-0.5-1.6-0.8C212.8,202.2,204.1,201,195.1,202.4z
		 M67.4,244.2c0,11.4,9.3,20.7,20.7,20.7s20.7-9.3,20.7-20.7c0-11.4-9.3-20.7-20.7-20.7S67.4,232.8,67.4,244.2z"/>
</g>
<g>
</g>
<g>
</g>
<g>
</g>
<g>
</g>
<g>
</g>
<g>
</g>
<g>
</g>
<g>
</g>
<g>
</g>
<g>
</g>
<g>
</g>
<g>
</g>
<g>
</g>
<g>
</g>
<g>
</g>
</svg>
