<svg height='100px' width='100px'  fill="#ffffff" xmlns="http://www.w3.org/2000/svg" xmlns:xlink="http://www.w3.org/1999/xlink" version="1.1" x="0px" y="0px" viewBox="0 0 48 48" enable-background="new 0 0 48 48" xml:space="preserve"><g>
    <path d="M38.958,45.533H3.75l0.877-1.505c0.052-0.088,5.105-8.972,1.314-20.542c-4.093-12.489,1.22-20.851,1.447-21.2l0.296-0.454   h35.283L41.96,3.378c-0.05,0.076-5.003,7.95-1.223,19.485c4.083,12.46-1.26,21.785-1.489,22.176L38.958,45.533z M7.098,43.533   h30.682c0.991-2.023,4.341-10.028,1.058-20.047c-3.123-9.53-0.77-16.656,0.622-19.654H8.806c-0.977,1.833-4.229,9.065-0.964,19.031   C11.022,32.569,8.483,40.373,7.098,43.533z"></path></g><path d="M34.935,9.169l-6.918-3.154c-0.1-0.045-0.261-0.045-0.36,0L20.74,9.169c-0.1,0.045-0.18,0.17-0.18,0.278v1.445h1.376v6.497  c0,0.109,0.089,0.197,0.197,0.197H24.1c0.109,0,0.197-0.088,0.197-0.197v-6.497h2.36v6.497c0,0.109,0.088,0.197,0.197,0.197h1.967  c0.108,0,0.197-0.088,0.197-0.197v-6.497h2.36v6.497c0,0.109,0.087,0.197,0.196,0.197h1.967c0.109,0,0.197-0.088,0.197-0.197v-6.497  h0.196h1.18V9.448C35.115,9.339,35.034,9.215,34.935,9.169z"></path><path d="M33.41,20.268H22.265c-0.546,0-0.988-0.442-0.988-0.989l0,0c0-0.545,0.442-0.988,0.988-0.988h11.142  c0.546,0,0.989,0.443,0.989,0.988l0,0C34.397,19.826,33.955,20.268,33.41,20.268z"></path><path d="M28.308,27.692H12.334c-0.602,0-1.089-0.486-1.089-1.087l0,0c0-0.6,0.487-1.087,1.089-1.087h15.973  c0.601,0,1.089,0.488,1.089,1.087l0,0C29.396,27.205,28.909,27.692,28.308,27.692z"></path><path d="M35.729,27.692h-2.456c-0.602,0-1.089-0.486-1.089-1.087l0,0c0-0.6,0.487-1.087,1.089-1.087h2.455  c0.601,0,1.089,0.488,1.089,1.087l0,0C36.816,27.205,36.33,27.692,35.729,27.692z"></path><path d="M29.067,33.075H13.092c-0.602,0-1.089-0.486-1.089-1.087l0,0c0-0.6,0.487-1.087,1.089-1.087h15.973  c0.601,0,1.089,0.488,1.089,1.087l0,0C30.154,32.589,29.668,33.075,29.067,33.075z"></path><path d="M36.487,33.075H34.03c-0.602,0-1.089-0.486-1.089-1.087l0,0c0-0.6,0.487-1.087,1.089-1.087h2.455  c0.601,0,1.089,0.488,1.089,1.087l0,0C37.574,32.589,37.088,33.075,36.487,33.075z"></path><path d="M28.556,38.458H12.582c-0.602,0-1.089-0.486-1.089-1.087l0,0c0-0.6,0.487-1.087,1.089-1.087h15.973  c0.601,0,1.089,0.488,1.089,1.087l0,0C29.643,37.972,29.157,38.458,28.556,38.458z"></path><path d="M35.976,38.458h-2.456c-0.602,0-1.089-0.486-1.089-1.087l0,0c0-0.6,0.487-1.087,1.089-1.087h2.455  c0.601,0,1.089,0.488,1.089,1.087l0,0C37.063,37.972,36.577,38.458,35.976,38.458z"></path></svg>