<svg fill="#ffffff" xmlns="http://www.w3.org/2000/svg"  viewBox="0 0 100 100" width="100px" height="100px"><path d="M 31 17 C 23.8 17 18 22.8 18 30 L 18 69 C 18 76.2 23.8 82 31 82 L 70 82 C 77.2 82 83 76.2 83 69 L 83 30 C 83 22.8 77.2 17 70 17 L 31 17 z M 31 19 L 70 19 C 76.1 19 81 23.9 81 30 L 81 69 C 81 75.1 76.1 80 70 80 L 31 80 C 24.9 80 20 75.1 20 69 L 20 30 C 20 23.9 24.9 19 31 19 z M 33.800781 22 C 27.800781 22 23 26.800781 23 32.800781 L 23 66.199219 C 23 72.199219 27.800781 77 33.800781 77 L 35.5 77 C 35.8 77 36 76.8 36 76.5 C 36 76.2 35.8 76 35.5 76 L 33.800781 76 C 28.400781 76 24 71.599219 24 66.199219 L 24 32.800781 C 24 27.400781 28.400781 23 33.800781 23 C 34.100781 23 34.300781 22.8 34.300781 22.5 C 34.300781 22.2 34.100781 22 33.800781 22 z M 36.5 22 C 36.2 22 36 22.2 36 22.5 C 36 22.8 36.2 23 36.5 23 L 42.5 23 C 42.8 23 43 22.8 43 22.5 C 43 22.2 42.8 22 42.5 22 L 36.5 22 z M 49.199219 25 C 41.599219 25.4 35.3 31.700391 35 39.400391 C 34.9 43.200391 36.199609 46.799219 38.599609 49.699219 C 39.099609 50.299219 39.699219 50.999609 40.199219 51.599609 C 42.399219 54.299609 45 57.3 45 59.5 L 45 60.5 C 45 61.3 45.7 62 46.5 62 L 53.5 62 C 54.3 62 55 61.3 55 60.5 L 55 59.5 C 55 57.5 57.3 54.699609 59.5 52.099609 C 60.3 51.099609 61.100781 50.199219 61.800781 49.199219 C 63.900781 46.599219 65 43.4 65 40 C 65 35.9 63.300781 31.999609 60.300781 29.099609 C 57.300781 26.299609 53.399219 24.8 49.199219 25 z M 49.300781 26 L 50 26 C 53.6 26 56.999219 27.400391 59.699219 29.900391 C 62.499219 32.500391 64 36.1 64 40 C 64 43.1 63 46.099609 61 48.599609 C 60.3 49.599609 59.499219 50.6 58.699219 51.5 C 56.299219 54.4 54 57.1 54 59.5 L 54 60.5 C 54 60.8 53.8 61 53.5 61 L 46.5 61 C 46.2 61 46 60.8 46 60.5 L 46 59.5 C 46 56.9 43.300391 53.700391 40.900391 50.900391 C 40.300391 50.200391 39.800781 49.6 39.300781 49 C 37.000781 46.4 35.9 42.900391 36 39.400391 C 36.3 32.200391 42.100781 26.3 49.300781 26 z M 77.5 37 C 77.2 37 77 37.2 77 37.5 L 77 53.5 C 77 53.8 77.2 54 77.5 54 C 77.8 54 78 53.8 78 53.5 L 78 37.5 C 78 37.2 77.8 37 77.5 37 z M 44.5 41 C 43.7 41 43 41.7 43 42.5 L 43 43.5 C 43 44.3 43.7 45 44.5 45 L 48 45 L 48 57.5 C 48 58.3 48.7 59 49.5 59 L 50.5 59 C 51.3 59 52 58.3 52 57.5 L 52 45 L 55.5 45 C 56.3 45 57 44.3 57 43.5 L 57 42.5 C 57 41.7 56.3 41 55.5 41 L 44.5 41 z M 44.5 42 L 55.5 42 C 55.8 42 56 42.2 56 42.5 L 56 43.5 C 56 43.8 55.8 44 55.5 44 L 51 44 L 51 57.5 C 51 57.8 50.8 58 50.5 58 L 49.5 58 C 49.2 58 49 57.8 49 57.5 L 49 44 L 44.5 44 C 44.2 44 44 43.8 44 43.5 L 44 42.5 C 44 42.2 44.2 42 44.5 42 z M 77.5 56 C 77.2 56 77 56.2 77 56.5 L 77 59.5 C 77 59.8 77.2 60 77.5 60 C 77.8 60 78 59.8 78 59.5 L 78 56.5 C 78 56.2 77.8 56 77.5 56 z M 45.5 63 C 44.7 63 44 63.7 44 64.5 C 44 65.3 44.7 66 45.5 66 L 54.5 66 C 55.3 66 56 65.3 56 64.5 C 56 63.7 55.3 63 54.5 63 L 45.5 63 z M 45.5 64 L 54.5 64 C 54.8 64 55 64.2 55 64.5 C 55 64.8 54.8 65 54.5 65 L 45.5 65 C 45.2 65 45 64.8 45 64.5 C 45 64.2 45.2 64 45.5 64 z M 77.5 64 C 77.2 64 77 64.2 77 64.5 L 77 66.199219 C 77 71.599219 72.599219 76 67.199219 76 L 66.5 76 C 66.2 76 66 76.2 66 76.5 C 66 76.8 66.2 77 66.5 77 L 67.199219 77 C 73.199219 77 78 72.199219 78 66.199219 L 78 64.5 C 78 64.2 77.8 64 77.5 64 z M 47.5 67 C 46.7 67 46 67.7 46 68.5 C 46 69.3 46.7 70 47.5 70 L 52.5 70 C 53.3 70 54 69.3 54 68.5 C 54 67.7 53.3 67 52.5 67 L 47.5 67 z M 47.5 68 L 52.5 68 C 52.8 68 53 68.2 53 68.5 C 53 68.8 52.8 69 52.5 69 L 47.5 69 C 47.2 69 47 68.8 47 68.5 C 47 68.2 47.2 68 47.5 68 z M 48.5 71 C 47.7 71 47 71.7 47 72.5 C 47 73.3 47.7 74 48.5 74 L 51.5 74 C 52.3 74 53 73.3 53 72.5 C 53 71.7 52.3 71 51.5 71 L 48.5 71 z M 48.5 72 L 51.5 72 C 51.8 72 52 72.2 52 72.5 C 52 72.8 51.8 73 51.5 73 L 48.5 73 C 48.2 73 48 72.8 48 72.5 C 48 72.2 48.2 72 48.5 72 z M 38.5 76 C 38.2 76 38 76.2 38 76.5 C 38 76.8 38.2 77 38.5 77 L 39.5 77 C 39.8 77 40 76.8 40 76.5 C 40 76.2 39.8 76 39.5 76 L 38.5 76 z M 56.5 76 C 56.2 76 56 76.2 56 76.5 C 56 76.8 56.2 77 56.5 77 L 57.5 77 C 57.8 77 58 76.8 58 76.5 C 58 76.2 57.8 76 57.5 76 L 56.5 76 z M 60.5 76 C 60.2 76 60 76.2 60 76.5 C 60 76.8 60.2 77 60.5 77 L 63.5 77 C 63.8 77 64 76.8 64 76.5 C 64 76.2 63.8 76 63.5 76 L 60.5 76 z"/></svg>