<?xml version="1.0" encoding="iso-8859-1"?>
<!-- Generator: Adobe Illustrator 18.0.0, SVG Export Plug-In . SVG Version: 6.00 Build 0)  -->
<!DOCTYPE svg PUBLIC "-//W3C//DTD SVG 1.1//EN" "http://www.w3.org/Graphics/SVG/1.1/DTD/svg11.dtd">
<svg version="1.1" id="Capa_1" xmlns="http://www.w3.org/2000/svg" xmlns:xlink="http://www.w3.org/1999/xlink" x="0px" y="0px"
	 viewBox="0 0 429.1 429.1" style="enable-background:new 0 0 429.1 429.1;" xml:space="preserve" fill="#ffffff">
<g>
	<path d="M378.792,235.376h-14.586v-58.449c0-18.349-14.928-33.277-33.277-33.277h-8.64l14.27-18.369
		c2.541-3.271,1.949-7.983-1.322-10.524l-42.485-33.004l-23.332-69.946c-0.629-1.887-1.983-3.447-3.762-4.336
		c-1.781-0.89-3.841-1.035-5.727-0.405l-44.294,14.78L189.547,1.577c-3.271-2.542-7.981-1.949-10.524,1.322L69.675,143.65H50.308
		c-4.142,0-7.5,3.358-7.5,7.5V421.6c0,4.142,3.358,7.5,7.5,7.5h280.621c18.349,0,33.277-14.928,33.277-33.277v-58.452h14.586
		c4.142,0,7.5-3.358,7.5-7.5v-86.996C386.292,238.734,382.934,235.376,378.792,235.376z M303.295,143.65h-0.572
		c-5.334-6.457-8.247-14.502-8.247-22.97c0-5.563,1.235-10.914,3.612-15.788l22.024,17.109L303.295,143.65z M257.565,23.669
		l13.844,41.503l-41.532-32.265L257.565,23.669z M186.267,18.024l22.007,17.096c-6.464,5.485-14.646,8.54-23.328,8.54
		c-5.563,0-10.915-1.235-15.789-3.612L186.267,18.024z M159.819,52.068c7.624,4.325,16.181,6.592,25.127,6.592
		c13.365,0,25.888-5.11,35.352-14.199l65.77,51.093c-4.324,7.624-6.591,16.181-6.591,25.126c0,8.1,1.891,15.924,5.441,22.97H88.67
		L159.819,52.068z M349.206,395.823c0,10.078-8.199,18.277-18.277,18.277H57.808V158.65h273.121
		c10.078,0,18.277,8.199,18.277,18.277v58.449h-70.909c-4.142,0-7.5,3.358-7.5,7.5v86.996c0,4.142,3.358,7.5,7.5,7.5h70.909V395.823
		z M371.292,322.371h-85.495v-71.996h85.495V322.371z"/>
	<path d="M328.545,308.873c12.406,0,22.499-10.093,22.499-22.499c0-12.406-10.093-22.5-22.499-22.5c-12.406,0-22.5,10.093-22.5,22.5
		C306.045,298.78,316.138,308.873,328.545,308.873z M328.545,278.874c4.135,0,7.499,3.364,7.499,7.5
		c0,4.135-3.364,7.499-7.499,7.499c-4.135,0-7.5-3.364-7.5-7.499C321.045,282.239,324.409,278.874,328.545,278.874z"/>
</g>
<g>
</g>
<g>
</g>
<g>
</g>
<g>
</g>
<g>
</g>
<g>
</g>
<g>
</g>
<g>
</g>
<g>
</g>
<g>
</g>
<g>
</g>
<g>
</g>
<g>
</g>
<g>
</g>
<g>
</g>
</svg>
