<svg width="1433" height="902" viewBox="0 0 1433 902" fill="none" xmlns="http://www.w3.org/2000/svg">
<g id="Vector 1">
<path d="M332 1.00001C182.519 0.425616 0 191.5 0 191.5V871.5C0 871.5 159.5 731.5 353 763.5C546.5 795.5 569 889.5 740 899C911 908.5 1065.5 713.5 1227 818.5C1388.5 923.5 1433 899 1433 899V335C1433 335 1243 123.5 1093 123.5C943 123.5 872 294.5 696.5 273.5C521 252.5 509.727 1.68294 332 1.00001Z" fill="#7966FF"/>
<path d="M332 1.00001C182.519 0.425616 0 191.5 0 191.5V871.5C0 871.5 159.5 731.5 353 763.5C546.5 795.5 569 889.5 740 899C911 908.5 1065.5 713.5 1227 818.5C1388.5 923.5 1433 899 1433 899V335C1433 335 1243 123.5 1093 123.5C943 123.5 872 294.5 696.5 273.5C521 252.5 509.727 1.68294 332 1.00001Z" fill="url(#paint0_linear)"/>
</g>
<defs>
<linearGradient id="paint0_linear" x1="703" y1="281.5" x2="716.5" y2="901.48" gradientUnits="userSpaceOnUse">
<stop stop-color="#9EB7FF"/>
<stop offset="1" stop-color="white" stop-opacity="0"/>
</linearGradient>
</defs>
</svg>
