<svg width="1439" height="894" viewBox="0 0 1439 894" fill="none" xmlns="http://www.w3.org/2000/svg">
<g id="Vector 2">
<path d="M913.573 848.435C795.851 786.098 737.111 679.457 671.224 580.192C646.009 544.495 620.348 509.227 592.411 476.314C562.911 441.561 530.874 409.432 494.144 382.196C342.631 269.842 264.436 318.217 133.767 186.095C69.4461 121.06 -3.09925 0 -3.09925 0H1438.41V836.429C1438.41 836.429 1392.06 852.542 1323.87 867.297C1205.85 893.358 1023.98 916.627 913.573 848.435Z" fill="#7966FF"/>
<path d="M913.573 848.435C795.851 786.098 737.111 679.457 671.224 580.192C646.009 544.495 620.348 509.227 592.411 476.314C562.911 441.561 530.874 409.432 494.144 382.196C342.631 269.842 264.436 318.217 133.767 186.095C69.4461 121.06 -3.09925 0 -3.09925 0H1438.41V836.429C1438.41 836.429 1392.06 852.542 1323.87 867.297C1205.85 893.358 1023.98 916.627 913.573 848.435Z" fill="url(#paint0_linear)"/>
</g>
<defs>
<linearGradient id="paint0_linear" x1="716" y1="0" x2="716" y2="976" gradientUnits="userSpaceOnUse">
<stop stop-color="#9EB7FF"/>
<stop offset="1" stop-color="white" stop-opacity="0"/>
</linearGradient>
</defs>
</svg>
